<svg xmlns="http://www.w3.org/2000/svg" viewBox="0 0 100 100" width="160" height="160">
  <!-- Edges -->
  <g stroke="#606070" stroke-width="1.8" stroke-linecap="round">
    <!-- Row 1: col1──col2, col2──col3 -->
    <line x1="27" y1="15" x2="43" y2="15"/>
    <line x1="57" y1="15" x2="73" y2="15"/>
    <!-- Col1: row1│row3, row3│row5 -->
    <line x1="20" y1="22" x2="20" y2="43"/>
    <line x1="20" y1="57" x2="20" y2="78"/>
    <!-- Col3: row1│row3 only -->
    <line x1="80" y1="22" x2="80" y2="43"/>
    <!-- Row 3: col1──col2 -->
    <line x1="27" y1="50" x2="43" y2="50"/>
    <!-- Col2: row3│row5 -->
    <line x1="50" y1="57" x2="50" y2="78"/>
    <!-- Row 5: col1──col2 -->
    <line x1="27" y1="85" x2="43" y2="85"/>
  </g>
  <!-- Row 1: teal, blue, purple -->
  <circle cx="20" cy="15" r="7" fill="none" stroke="#00C9A7" stroke-width="2.8"/>
  <circle cx="20" cy="15" r="2.2" fill="#00C9A7"/>
  <circle cx="50" cy="15" r="7" fill="none" stroke="#00A8E8" stroke-width="2.8"/>
  <circle cx="50" cy="15" r="2.2" fill="#00A8E8"/>
  <circle cx="80" cy="15" r="7" fill="none" stroke="#845EC2" stroke-width="2.8"/>
  <circle cx="80" cy="15" r="2.2" fill="#845EC2"/>
  <!-- Row 3: teal, blue, purple -->
  <circle cx="20" cy="50" r="7" fill="none" stroke="#00C9A7" stroke-width="2.8"/>
  <circle cx="20" cy="50" r="2.2" fill="#00C9A7"/>
  <circle cx="50" cy="50" r="7" fill="none" stroke="#00A8E8" stroke-width="2.8"/>
  <circle cx="50" cy="50" r="2.2" fill="#00A8E8"/>
  <circle cx="80" cy="50" r="7" fill="none" stroke="#845EC2" stroke-width="2.8"/>
  <circle cx="80" cy="50" r="2.2" fill="#845EC2"/>
  <!-- Row 5: teal, blue -->
  <circle cx="20" cy="85" r="7" fill="none" stroke="#00C9A7" stroke-width="2.8"/>
  <circle cx="20" cy="85" r="2.2" fill="#00C9A7"/>
  <circle cx="50" cy="85" r="7" fill="none" stroke="#00A8E8" stroke-width="2.8"/>
  <circle cx="50" cy="85" r="2.2" fill="#00A8E8"/>
</svg>
