<svg xmlns="http://www.w3.org/2000/svg" viewBox="0 0 720 196" width="720" height="196" role="img" aria-label="13 MCP tools: 9 read tools and 4 symbol-level edit tools, pre-approved after opencontext install">

  <rect width="720" height="196" rx="14" fill="#0B0F14"/>
  <rect x="1" y="1" width="718" height="194" rx="13" fill="none" stroke="rgba(0,168,232,0.12)" stroke-width="1"/>

  <!-- Eyebrow -->
  <text x="360" y="26" text-anchor="middle"
        font-family="-apple-system,BlinkMacSystemFont,'Segoe UI',sans-serif"
        font-size="10" font-weight="600" fill="#3D4450" letter-spacing="1.2">13 MCP TOOLS  ·  PRE-APPROVED AFTER INSTALL  ·  WORKS WITH ANY MCP EDITOR</text>

  <!-- Section label: Read -->
  <rect x="20" y="38" width="54" height="20" rx="4" fill="rgba(0,168,232,0.10)" stroke="rgba(0,168,232,0.25)" stroke-width="1"/>
  <text x="47" y="52" text-anchor="middle"
        font-family="-apple-system,BlinkMacSystemFont,'Segoe UI',sans-serif"
        font-size="10" font-weight="600" fill="#00A8E8">Read  9</text>

  <!-- Read tools grid — 3 rows × 3 cols -->
  <g font-family="'JetBrains Mono','Cascadia Code',Consolas,monospace" font-size="11">
    <!-- Row 1 -->
    <rect x="20"  y="64" width="210" height="28" rx="5" fill="#111821" stroke="#21262D" stroke-width="1"/>
    <text x="32"  y="82" fill="#00A8E8">opencontext_search</text>

    <rect x="240" y="64" width="210" height="28" rx="5" fill="#111821" stroke="#21262D" stroke-width="1"/>
    <text x="252" y="82" fill="#00A8E8">opencontext_context</text>

    <rect x="460" y="64" width="240" height="28" rx="5" fill="#111821" stroke="#21262D" stroke-width="1"/>
    <text x="472" y="82" fill="#00A8E8">opencontext_callers</text>

    <!-- Row 2 -->
    <rect x="20"  y="98" width="210" height="28" rx="5" fill="#111821" stroke="#21262D" stroke-width="1"/>
    <text x="32"  y="116" fill="#00A8E8">opencontext_callees</text>

    <rect x="240" y="98" width="210" height="28" rx="5" fill="#111821" stroke="#21262D" stroke-width="1"/>
    <text x="252" y="116" fill="#00A8E8">opencontext_impact</text>

    <rect x="460" y="98" width="240" height="28" rx="5" fill="#111821" stroke="#21262D" stroke-width="1"/>
    <text x="472" y="116" fill="#00A8E8">opencontext_node</text>

    <!-- Row 3 -->
    <rect x="20"  y="132" width="210" height="28" rx="5" fill="#111821" stroke="#21262D" stroke-width="1"/>
    <text x="32"  y="150" fill="#00A8E8">opencontext_files</text>

    <rect x="240" y="132" width="210" height="28" rx="5" fill="#111821" stroke="#21262D" stroke-width="1"/>
    <text x="252" y="150" fill="#00A8E8">opencontext_status</text>

    <rect x="460" y="132" width="240" height="28" rx="5" fill="#111821" stroke="#21262D" stroke-width="1"/>
    <text x="472" y="150" fill="#00A8E8">opencontext_trace</text>
  </g>

  <!-- Section label: Edit -->
  <rect x="20" y="167" width="70" height="20" rx="4" fill="rgba(132,92,194,0.10)" stroke="rgba(132,92,194,0.25)" stroke-width="1"/>
  <text x="55" y="181" text-anchor="middle"
        font-family="-apple-system,BlinkMacSystemFont,'Segoe UI',sans-serif"
        font-size="10" font-weight="600" fill="#845EC2">Edit  4</text>

  <!-- Edit tools — 1 row × 4 cols -->
  <g font-family="'JetBrains Mono','Cascadia Code',Consolas,monospace" font-size="10.5">
    <rect x="96"  y="167" width="148" height="20" rx="4" fill="#111821" stroke="rgba(132,92,194,0.25)" stroke-width="1"/>
    <text x="104" y="181" fill="#845EC2">replace_symbol_body</text>

    <rect x="252" y="167" width="148" height="20" rx="4" fill="#111821" stroke="rgba(132,92,194,0.25)" stroke-width="1"/>
    <text x="260" y="181" fill="#845EC2">insert_before_symbol</text>

    <rect x="408" y="167" width="148" height="20" rx="4" fill="#111821" stroke="rgba(132,92,194,0.25)" stroke-width="1"/>
    <text x="416" y="181" fill="#845EC2">insert_after_symbol</text>

    <rect x="564" y="167" width="136" height="20" rx="4" fill="#111821" stroke="rgba(132,92,194,0.25)" stroke-width="1"/>
    <text x="572" y="181" fill="#845EC2">rename_symbol</text>
  </g>

</svg>
