<svg xmlns="http://www.w3.org/2000/svg" viewBox="0 0 720 210" width="720" height="210" role="img" aria-label="SDD 9-phase workflow: explore, propose, spec, design, tasks, apply, verify, review, archive. Quality track adds GGA rules and judgment phases after verify.">
  <rect width="720" height="210" rx="8" fill="#0B0F14"/>

  <text x="66" y="24" font-size="11" fill="#606978" letter-spacing="1" font-family="-apple-system,BlinkMacSystemFont,'Segoe UI','Noto Sans',Helvetica,Arial,sans-serif">SDD WORKFLOW</text>

  <!-- Connector arrows (midpoint y=76, box top=46, h=60) -->
  <g stroke="#21262D" stroke-width="1.5" fill="none">
    <line x1="126" y1="76" x2="133" y2="76"/>
    <line x1="192" y1="76" x2="199" y2="76"/>
    <line x1="258" y1="76" x2="265" y2="76"/>
    <line x1="324" y1="76" x2="331" y2="76"/>
    <line x1="390" y1="76" x2="397" y2="76"/>
    <line x1="456" y1="76" x2="463" y2="76"/>
    <line x1="522" y1="76" x2="529" y2="76"/>
    <line x1="588" y1="76" x2="595" y2="76"/>
  </g>
  <g fill="#21262D">
    <polygon points="133,72 133,80 141,76"/>
    <polygon points="199,72 199,80 207,76"/>
    <polygon points="265,72 265,80 273,76"/>
    <polygon points="331,72 331,80 339,76"/>
    <polygon points="397,72 397,80 405,76"/>
    <polygon points="463,72 463,80 471,76"/>
    <polygon points="529,72 529,80 537,76"/>
    <polygon points="595,72 595,80 603,76"/>
  </g>

  <!-- 1: explore (offline) -->
  <rect x="66" y="46" width="60" height="60" rx="5" fill="#111820" stroke="#35ADE5" stroke-width="1"/>
  <text x="96" y="71" text-anchor="middle" font-size="12" fill="#35ADE5" font-family="-apple-system,BlinkMacSystemFont,'Segoe UI','Noto Sans',Helvetica,Arial,sans-serif">explore</text>
  <text x="96" y="87" text-anchor="middle" font-size="11" fill="#606978" font-family="-apple-system,BlinkMacSystemFont,'Segoe UI','Noto Sans',Helvetica,Arial,sans-serif">offline</text>

  <!-- 2: propose -->
  <rect x="132" y="46" width="60" height="60" rx="5" fill="#111821" stroke="#21262D" stroke-width="1"/>
  <text x="162" y="80" text-anchor="middle" font-size="12" fill="#E6EDF3" font-family="-apple-system,BlinkMacSystemFont,'Segoe UI','Noto Sans',Helvetica,Arial,sans-serif">propose</text>

  <!-- 3: spec -->
  <rect x="198" y="46" width="60" height="60" rx="5" fill="#111821" stroke="#21262D" stroke-width="1"/>
  <text x="228" y="80" text-anchor="middle" font-size="12" fill="#E6EDF3" font-family="-apple-system,BlinkMacSystemFont,'Segoe UI','Noto Sans',Helvetica,Arial,sans-serif">spec</text>

  <!-- 4: design -->
  <rect x="264" y="46" width="60" height="60" rx="5" fill="#111821" stroke="#21262D" stroke-width="1"/>
  <text x="294" y="80" text-anchor="middle" font-size="12" fill="#E6EDF3" font-family="-apple-system,BlinkMacSystemFont,'Segoe UI','Noto Sans',Helvetica,Arial,sans-serif">design</text>

  <!-- 5: tasks -->
  <rect x="330" y="46" width="60" height="60" rx="5" fill="#111821" stroke="#21262D" stroke-width="1"/>
  <text x="360" y="80" text-anchor="middle" font-size="12" fill="#E6EDF3" font-family="-apple-system,BlinkMacSystemFont,'Segoe UI','Noto Sans',Helvetica,Arial,sans-serif">tasks</text>

  <!-- 6: apply -->
  <rect x="396" y="46" width="60" height="60" rx="5" fill="#111821" stroke="#21262D" stroke-width="1"/>
  <text x="426" y="80" text-anchor="middle" font-size="12" fill="#E6EDF3" font-family="-apple-system,BlinkMacSystemFont,'Segoe UI','Noto Sans',Helvetica,Arial,sans-serif">apply</text>

  <!-- 7: verify (offline) -->
  <rect x="462" y="46" width="60" height="60" rx="5" fill="#111820" stroke="#35ADE5" stroke-width="1"/>
  <text x="492" y="71" text-anchor="middle" font-size="12" fill="#35ADE5" font-family="-apple-system,BlinkMacSystemFont,'Segoe UI','Noto Sans',Helvetica,Arial,sans-serif">verify</text>
  <text x="492" y="87" text-anchor="middle" font-size="11" fill="#606978" font-family="-apple-system,BlinkMacSystemFont,'Segoe UI','Noto Sans',Helvetica,Arial,sans-serif">offline</text>

  <!-- 8: review -->
  <rect x="528" y="46" width="60" height="60" rx="5" fill="#111821" stroke="#21262D" stroke-width="1"/>
  <text x="558" y="80" text-anchor="middle" font-size="12" fill="#E6EDF3" font-family="-apple-system,BlinkMacSystemFont,'Segoe UI','Noto Sans',Helvetica,Arial,sans-serif">review</text>

  <!-- 9: archive -->
  <rect x="594" y="46" width="60" height="60" rx="5" fill="#0D2220" stroke="#2DC4A4" stroke-width="1"/>
  <text x="624" y="80" text-anchor="middle" font-size="12" fill="#2DC4A4" font-family="-apple-system,BlinkMacSystemFont,'Segoe UI','Noto Sans',Helvetica,Arial,sans-serif">archive</text>

  <!-- Quality track branch: vertical drop from verify center bottom → GGA top -->
  <line x1="492" y1="106" x2="492" y2="118" stroke="#D4A840" stroke-width="1" stroke-dasharray="3 2"/>

  <!-- gga rules box -->
  <rect x="466" y="118" width="72" height="28" rx="4" fill="#1A1600" stroke="#D4A840" stroke-width="1" stroke-dasharray="3 2"/>
  <text x="502" y="135" text-anchor="middle" font-size="11" fill="#D4A840" font-family="-apple-system,BlinkMacSystemFont,'Segoe UI','Noto Sans',Helvetica,Arial,sans-serif">gga rules</text>

  <!-- Arrow from GGA to judgment -->
  <line x1="538" y1="132" x2="544" y2="132" stroke="#D4A840" stroke-width="1" stroke-dasharray="3 2"/>
  <polygon points="544,128 544,136 552,132" fill="#D4A840"/>

  <!-- judgment box -->
  <rect x="552" y="118" width="72" height="28" rx="4" fill="#1A1600" stroke="#D4A840" stroke-width="1" stroke-dasharray="3 2"/>
  <text x="588" y="135" text-anchor="middle" font-size="11" fill="#D4A840" font-family="-apple-system,BlinkMacSystemFont,'Segoe UI','Noto Sans',Helvetica,Arial,sans-serif">judgment</text>

  <text x="630" y="135" font-size="11" fill="#606978" font-family="-apple-system,BlinkMacSystemFont,'Segoe UI','Noto Sans',Helvetica,Arial,sans-serif">--flow quality</text>

  <!-- Legend -->
  <rect x="66" y="162" width="10" height="10" rx="2" fill="#111820" stroke="#35ADE5" stroke-width="1"/>
  <text x="82" y="172" font-size="11" fill="#606978" font-family="-apple-system,BlinkMacSystemFont,'Segoe UI','Noto Sans',Helvetica,Arial,sans-serif">works without LLM</text>
  <rect x="210" y="162" width="10" height="10" rx="2" fill="#111821" stroke="#21262D" stroke-width="1"/>
  <text x="226" y="172" font-size="11" fill="#606978" font-family="-apple-system,BlinkMacSystemFont,'Segoe UI','Noto Sans',Helvetica,Arial,sans-serif">requires LLM</text>
  <rect x="340" y="162" width="10" height="10" rx="2" fill="#1A1600" stroke="#D4A840" stroke-width="1" stroke-dasharray="3 2"/>
  <text x="356" y="172" font-size="11" fill="#606978" font-family="-apple-system,BlinkMacSystemFont,'Segoe UI','Noto Sans',Helvetica,Arial,sans-serif">optional quality gates</text>
</svg>
